<svg id="b2793677-d1a5-4b71-93b3-67efccfd3a3a" data-name="Layer 1" xmlns="http://www.w3.org/2000/svg" viewBox="0 0 481 171.73"><path d="M40.15,94.49c-13.67,0-19,8.58-19,30.68S25.88,157.09,38,157.09a28.64,28.64,0,0,0,19.4-8.18V99a36.89,36.89,0,0,0-17.26-4.44ZM66.88,171.1c-1.79,0-2.79-1.44-3.94-3.54a25,25,0,0,1-2.19-6.23A47,47,0,0,1,32.22,171.8C12.42,171.8.5,155,.5,126.91c0-17.46,3.94-29.23,11.87-37.42a33,33,0,0,1,24.37-10,42.61,42.61,0,0,1,20.6,5.54V45.8c0-1.79.4-2.49,2.2-2.84L73.8,40.27a8,8,0,0,1,2-.2c1.2,0,1.59.55,1.59,2.49V144A26.81,26.81,0,0,0,81,161.32c.59,1,1.59,1.92,1.59,2.84s-.2.9-1.2,1.24l-12.66,5.34a3.22,3.22,0,0,1-1.8.35Z" transform="translate(-0.5 -0.14)"/><path d="M143.76,97.83h-.4A24.79,24.79,0,0,0,136,96.38c-4.54,0-9.52,2.7-17.46,10.91v59.35c0,2.3-.2,2.5-2.79,2.5H101.51c-2.39,0-3-.35-3-2.5v-54a44.31,44.31,0,0,0-3.94-22.29c-.6-1-1.8-2.5-1.8-3.54s.2-1.25,1.4-1.8l12.07-5a6.1,6.1,0,0,1,1.8-.34c2.56,0,3.39,3,4.74,5.69a30.7,30.7,0,0,1,3,8.53c7.13-7.28,13.27-14.42,24.79-14.42a20.17,20.17,0,0,1,9.33,1.93c1,.55,1.4,1,1.4,1.79a5.21,5.21,0,0,1-.4,1.45l-5.13,11.43c-.8,1.45-1.2,1.79-2,1.79Z" transform="translate(-0.5 -0.14)"/><path d="M237.47,165.42c0,.55-.4,1-1.4,1.45l-12.66,4.29a6.82,6.82,0,0,1-1.6.34c-1.8,0-2.79-1.24-3.74-2.84a32.72,32.72,0,0,1-3-7.33,41.12,41.12,0,0,1-28.34,10.53c-21.8,0-28.33-11.23-28.33-29.23V85.77c0-1.8.6-2.3,2.57-2.7l13.87-3a6.35,6.35,0,0,1,1.79-.2c1.2,0,2,.56,2,2.3V138.5c0,13.72,3.2,18.35,13.07,18.35a34.38,34.38,0,0,0,20.6-7.83V85.77c0-1.79.6-2.29,2.57-2.69l13.86-3a13.5,13.5,0,0,1,2-.35c1,0,1.59.56,1.59,2.5V146a28.47,28.47,0,0,0,4.35,17.81,3,3,0,0,1,.79,1.59Z" transform="translate(-0.5 -0.14)"/><path d="M289.78,171.46H277.91c-2,0-2.19,0-3-1.93L242,86.68a5.64,5.64,0,0,1-.59-2.14c0-.7.59-1.24,2.39-1.45L258.86,81h1c1.39,0,2,.55,2.56,1.93l17.06,49.38A183.52,183.52,0,0,1,284.61,151,159.22,159.22,0,0,1,290,132.41l18.6-49.53c.6-1.45,1.2-1.92,2.39-1.92s1,.2,1.8.2l12.67,2.14c1.59.34,2.19.7,2.19,1.45a6.7,6.7,0,0,1-.6,2.14l-34.07,82.65C292.38,171.1,292,171.46,289.78,171.46Z" transform="translate(-0.5 -0.14)"/><path d="M348.16,144.37a13.05,13.05,0,0,0,12.74,13.36c.25,0,.49,0,.73,0a28.69,28.69,0,0,0,18.81-8.53V128c-12.47.2-32.32.9-32.32,16.42Zm57.09,19.95a1.34,1.34,0,0,1-1,1.24l-12.07,5.34a4.82,4.82,0,0,1-2,.55c-1.4,0-2.39-1-3.39-2.84a34,34,0,0,1-3.39-8,36.62,36.62,0,0,1-26.74,10.67c-17.06,0-28.13-10-28.13-25.69,0-26.73,28.53-30.47,52-30.67v-5.64c0-10.9-3.93-14.82-15.66-14.82A62,62,0,0,0,342,99.62a6.53,6.53,0,0,1-1.8.35,1.85,1.85,0,0,1-1.8-1.25L335.29,90a4.83,4.83,0,0,1-.4-1.59c0-2.3,2.4-3,3.94-3.54a80.25,80.25,0,0,1,28.38-5.19c21.81,0,32.71,8,32.71,26.94v34.91a36.42,36.42,0,0,0,4.74,21,6.36,6.36,0,0,1,.6,1.8Z" transform="translate(-0.5 -0.14)"/><path d="M445.42,34.39l2,3.2a47.93,47.93,0,0,1,5.39,12,45,45,0,0,1,1.5,8.93,45.86,45.86,0,0,1,0,4.69,145.17,145.17,0,0,1-2.57,18.45c1.6-.85,3.09-1.55,4.54-2.44a55.83,55.83,0,0,0,8.78-6.42A54.59,54.59,0,0,0,472,64.85a57.75,57.75,0,0,0,5.78-10.58,84.24,84.24,0,0,0,3.44-9.08c.1-.34.2-.75.3-1.09a62.58,62.58,0,0,0-36.11-9.73ZM401.2,65a1.73,1.73,0,0,0,.05.45c.6,1.4,1.15,2.84,1.8,4.19a47.21,47.21,0,0,0,5.73,8.92A49.38,49.38,0,0,0,415,84.85l1.55,1.2a60.47,60.47,0,0,0,10.38,5.84c2.46,1.1,5,2.11,7.48,3a62.73,62.73,0,0,0,6.09,2,13.35,13.35,0,0,0,.7-1.2l2.19-4.39a65.5,65.5,0,0,0,3.79-9.42,58,58,0,0,0,2.05-9.48c.3-1.93.55-4.84.6-6.09.14-2.19,0-4.39,0-6.59v-1c-20.35,7.63-35.17,9.27-48.75,6.28Zm-16-10.62,2.69,1.45c2.19,1.09,4.44,2.24,6.68,3.24a38.26,38.26,0,0,0,4.24,1.64,43.05,43.05,0,0,0,13.37,2.1c1.35,0,2.69-.1,4.09-.2a57.61,57.61,0,0,0,6.54-.84l-1-1.8c-.55-1.15-1.1-2.35-1.65-3.54a52,52,0,0,1-2.57-6.68,65.53,65.53,0,0,1-1.92-7.28c-.45-2.15-.6-4.35-.85-6.49a36.68,36.68,0,0,1-.05-4.69c.05-1.54.1-3.09.25-4.63s.1-1.7.2-2.57c.25-1.92.6-3.79.9-5.69s.54-2.56.79-3.79c.05-.3.11-.6.15-1a64.65,64.65,0,0,0-6.73,4.19A59.91,59.91,0,0,0,403,23.94a73.05,73.05,0,0,0-5.13,5.44,49.64,49.64,0,0,0-6.08,9.48c-1.15,2.24-2.2,4.54-3.24,6.83a87.21,87.21,0,0,0-3.4,8.68ZM429.43.45c3.34,1.1,6.63,2.24,9.82,3.64A72.18,72.18,0,0,1,451,10.28a40,40,0,0,1,5.69,4.79,51.45,51.45,0,0,1,7.63,9.87,53.4,53.4,0,0,1,4,8.38,64.55,64.55,0,0,0-48.23,5.49,52.08,52.08,0,0,1-.5-8c.05-1.93.1-3.79.25-5.69a56.63,56.63,0,0,1,.7-5.84A43.33,43.33,0,0,1,423,11a67.88,67.88,0,0,1,3-6.53c.75-1.45,1.65-2.84,2.44-4.29l.95.25Z" transform="translate(-0.5 -0.14)" fill="#f99e29"/></svg>