<?xml version="1.0" encoding="utf-8"?>
<!-- Generator: Adobe Illustrator 25.0.0, SVG Export Plug-In . SVG Version: 6.00 Build 0)  -->
<svg version="1.1" id="Layer_1" xmlns="http://www.w3.org/2000/svg" xmlns:xlink="http://www.w3.org/1999/xlink" x="0px" y="0px"
	 width="172px" height="52.9px" viewBox="0 0 172 52.9" style="enable-background:new 0 0 172 52.9;" xml:space="preserve">
<style type="text/css">
	.st0{fill:#00E4BC;}
	.st1{fill:#404041;}
	.st2{fill:url(#Path_32_1_);}
</style>
<g id="Group_5245" transform="translate(0 0)">
	<path id="Path_25" class="st0" d="M9.1,7.5v43.7h37.5V7.5H9.1z M43.7,48.4H11.9v-38h31.8L43.7,48.4z"/>
	<path id="Path_26" class="st1" d="M77.1,51.8c-1.7,0-3.4-0.3-5.1-0.9c-1.5-0.6-2.8-1.4-4-2.5c-1.1-1.1-2-2.4-2.6-3.9
		c-0.6-1.6-0.9-3.3-0.9-4.9c0-1.7,0.3-3.4,0.9-5c0.6-1.5,1.4-2.8,2.6-3.9c1.1-1.1,2.5-2,4-2.5c1.6-0.6,3.4-0.9,5.1-0.9
		c1.7,0,3.4,0.3,5,0.9c1.6,0.6,3,1.6,4.2,2.8l0.3,0.3l-4,3.6l-0.2-0.3c-0.7-0.7-1.5-1.3-2.4-1.8c-0.9-0.4-2-0.6-3-0.6
		c-1,0-2,0.2-3,0.6c-0.8,0.4-1.5,0.9-2.1,1.6c-0.6,0.7-1,1.6-1.3,2.4c-0.3,0.9-0.4,1.9-0.4,2.9c0,1,0.2,1.9,0.5,2.8
		c0.3,0.9,0.8,1.6,1.4,2.3c0.6,0.7,1.4,1.2,2.2,1.5c0.9,0.4,1.9,0.6,2.9,0.6c1,0,2-0.2,3-0.6c0.9-0.4,1.7-1,2.3-1.8l0.3-0.3l3.7,3.6
		l-0.3,0.3c-1.1,1.3-2.6,2.2-4.2,2.8C80.5,51.5,78.8,51.8,77.1,51.8z"/>
	<path id="Path_27" class="st1" d="M99.8,51.8c-1.8,0-3.5-0.3-5.1-0.9c-1.5-0.6-2.8-1.5-3.9-2.6c-1.1-1.1-1.9-2.5-2.5-3.9
		c-0.6-1.5-0.9-3.2-0.9-4.8c0-1.7,0.3-3.3,0.9-4.9c0.6-1.5,1.5-2.8,2.6-3.9c1.1-1.1,2.5-2,3.9-2.6c1.6-0.6,3.3-1,5-0.9
		c1.9-0.1,3.7,0.3,5.4,1.1c1.4,0.7,2.6,1.7,3.6,2.9c0.9,1.2,1.6,2.5,2.1,4c0.4,1.4,0.6,2.9,0.6,4.4v1.9H93l0,0.1
		c0.1,0.7,0.3,1.4,0.6,2c0.4,0.8,1,1.4,1.6,1.9c0.7,0.6,1.5,1,2.4,1.3c0.9,0.3,1.8,0.5,2.8,0.5c1.2,0,2.3-0.3,3.3-0.9
		c1-0.6,1.9-1.4,2.7-2.4l0.3-0.4l4,3l-0.3,0.3C107.8,50.2,104.3,51.8,99.8,51.8z M99.7,31.4c-2.7,0-5.2,1.5-6.3,4
		C93.2,36,93,36.5,93,37.1l0,0.1h13l0-0.1c-0.1-0.7-0.2-1.4-0.4-2c-0.5-1.5-1.6-2.7-3.1-3.2C101.6,31.6,100.7,31.4,99.7,31.4z"/>
	<path id="Path_28" class="st1" d="M162.2,51.8c-1.8,0-3.6-0.3-5.2-0.9c-1.6-0.7-3-1.8-4.1-3.3l-0.3-0.4l4-3.1l0.2,0.3
		c0.7,0.7,1.5,1.3,2.3,1.8c0.9,0.5,2,0.8,3,0.7c0.5,0,1.1-0.1,1.6-0.2c0.5-0.1,1-0.2,1.4-0.5c0.4-0.2,0.7-0.5,0.9-0.8
		c0.2-0.3,0.3-0.6,0.3-1c0-0.5-0.2-0.9-0.5-1.3c-0.4-0.4-0.8-0.7-1.3-0.9c-0.6-0.2-1.1-0.4-1.7-0.5c-0.6-0.1-1.2-0.3-1.7-0.4
		c-1-0.2-1.9-0.5-2.7-0.8c-0.8-0.3-1.6-0.7-2.4-1.2c-0.7-0.5-1.3-1.2-1.7-2c-0.4-0.9-0.7-1.9-0.6-2.9c0-1.1,0.3-2.3,0.8-3.3
		c0.5-0.9,1.3-1.7,2.1-2.3c0.9-0.6,1.9-1.1,3-1.4c1.1-0.3,2.2-0.4,3.3-0.4c1.6,0,3.2,0.3,4.7,0.9c1.5,0.6,2.8,1.7,3.6,3l0.2,0.4
		l-4.2,3l-0.2-0.4c-0.5-0.6-1.1-1.1-1.8-1.5c-0.8-0.4-1.7-0.6-2.6-0.6c-0.9,0-1.7,0.2-2.5,0.6c-0.6,0.3-1,0.9-0.9,1.5
		c0,0.5,0.2,1,0.5,1.3c0.4,0.4,0.9,0.7,1.4,0.9c0.6,0.2,1.2,0.4,1.8,0.5c0.7,0.1,1.3,0.2,1.8,0.3c0.9,0.2,1.8,0.5,2.7,0.8
		c0.8,0.3,1.6,0.8,2.3,1.3c0.6,0.5,1.2,1.2,1.5,2c0.4,0.9,0.6,1.9,0.6,2.8c0,1.2-0.3,2.4-0.9,3.5c-0.6,0.9-1.4,1.7-2.3,2.4
		c-1,0.6-2,1.1-3.1,1.3C164.5,51.6,163.3,51.8,162.2,51.8z"/>
	<rect id="Rectangle_33" x="56.4" y="18.5" class="st1" width="5.3" height="32.7"/>
	<path id="Path_29" class="st1" d="M138,51.8c-1.4,0.1-2.8-0.2-4.1-0.7c-0.9-0.4-1.7-1.1-2.2-2c-0.5-0.8-0.8-1.7-0.8-2.6
		c-0.1-0.9-0.1-1.8-0.1-2.8V22.8l5.3-1v6h6.3v4.6H136v9.8c0,0.6,0,1.3,0,1.9c0,0.5,0.1,1,0.3,1.5c0.2,0.4,0.5,0.8,0.8,1
		c0.5,0.3,1.1,0.4,1.7,0.4c0.5,0,1,0,1.5-0.1c0.5-0.1,0.9-0.2,1.4-0.5l0.6-0.4v4.9l-0.2,0.1c-0.7,0.3-1.4,0.6-2.2,0.6
		C139.4,51.7,138.7,51.8,138,51.8z"/>
	<path id="Path_30" class="st1" d="M114.4,51.2V27.8l5.3-1v3.6l0.1-0.2c0.1-0.2,0.3-0.3,0.4-0.4c0.5-0.5,1.1-1,1.7-1.3
		c0.7-0.4,1.4-0.7,2.1-0.9c0.7-0.2,1.5-0.3,2.3-0.3c0.4,0,0.8,0,1.2,0.1l-0.1,5.5l0,0c-0.2,0-0.4-0.1-0.5-0.1
		c-0.3-0.1-0.7-0.1-1-0.1c-1.7-0.1-3.4,0.5-4.6,1.6c-1.1,1.1-1.6,2.8-1.6,5.2v11.8L114.4,51.2z"/>
	<g id="Group_38" transform="translate(145.477 17.929)">
		<path id="Path_31" class="st1" d="M0,6.2l0-4.5l5.3-1l0,5.5L0,6.2z"/>
		<rect id="Rectangle_34" x="0" y="9.8" class="st1" width="5.3" height="23.4"/>
	</g>
	
		<linearGradient id="Path_32_1_" gradientUnits="userSpaceOnUse" x1="45.093" y1="66.3802" x2="45.761" y2="67.3082" gradientTransform="matrix(45.724 0 0 -50.5 -2057.3047 3406.2795)">
		<stop  offset="0" style="stop-color:#00FFFF"/>
		<stop  offset="3.200000e-02" style="stop-color:#03EDF9"/>
		<stop  offset="0.156" style="stop-color:#11ADE5"/>
		<stop  offset="0.269" style="stop-color:#1C7AD6"/>
		<stop  offset="0.366" style="stop-color:#2456CB"/>
		<stop  offset="0.445" style="stop-color:#2940C4"/>
		<stop  offset="0.496" style="stop-color:#2B38C2"/>
		<stop  offset="1" style="stop-color:#90278E"/>
	</linearGradient>
	<path id="Path_32" class="st2" d="M36.6,0.7L0,8.5l9.1,42.7l36.6-7.8L36.6,0.7z M3.3,10.7L34.5,4l7.9,37.2l-31.1,6.6L3.3,10.7z"/>
</g>
</svg>
