<svg version="1.1" id="Layer_1" xmlns="http://www.w3.org/2000/svg" xmlns:xlink="http://www.w3.org/1999/xlink" x="0px" y="0px"
	 viewBox="0 0 530 127" style="enable-background:new 0 0 530 127;" xml:space="preserve">
<style type="text/css">
	.st0{fill:#FFFFFF;}
</style>
<path class="st0" d="M144.1,9.4c-27.7,11.9-53.5,39.5-56.8,71c-4,38.6,27.2,53.9,65.5,31.4c2.6-1.5,5.3-3.7,8.6-6.3
	c15.2-11.7,21.1-31.8,12.8-40.7c-4.7-5-17.3-9.1-33.2,4.9l-0.1-23.9c0,0-3.5-8.3-14-4.1l0.3,54.6c0,0,5,14.9,25.7,0.4
	c0,0-9.9,1.4-10.1-6.6c-0.1-6.6,4-12.7,11.3-15.6c6.5-2.6,12,0.5,12.1,7.3c0,4.5,0.6,16.4-23,27.1c-25,8.8-43.1-1.3-42.7-25.6
	c0.4-27.7,18.9-49.4,43.9-60.6C177.5,7.9,196.5,24,196.7,50c0.1,21-13.5,49.6-35.7,64.1c4.5-3,10.7-2.8,19.2-10.6
	c15.7-14.3,28.4-33.8,30.1-60.5C212.1,14.3,184.5-8,144.1,9.4L144.1,9.4z"/>
<path class="st0" d="M69.8,57.7v-5c0-4.9,2.5-7.4,7.4-7.4c1.1,0,2.4,0.2,3.9,0.5V37c-2-0.1-3.6-0.1-4.8-0.1c-6.8,0-11.4,1.1-14,3.4
	c-2.6,2.3-3.9,6.4-3.9,12.4v5h-6.6v8.6h6.6v38.5h11.3V66.2h11.7v-8.6L69.8,57.7z M26.8,57.1c-9.3,0-15.4,1.5-18.2,4.4
	c-2.8,3-4.2,9.4-4.2,19.2c0,10.3,1.4,16.9,4.3,19.9c2.8,3,9.1,4.5,18.7,4.5c8.9,0,14.7-1.6,17.4-4.9c2.8-3.2,4.1-10.1,4.1-20.5
	c0-9.3-1.4-15.5-4.2-18.4C41.8,58.6,35.9,57.1,26.8,57.1z M35.6,93.5c-1.2,1.9-4.2,2.8-8.9,2.8c-4.8,0-7.9-0.9-9.1-2.7
	c-1.2-1.8-1.8-6.2-1.8-13.3c0-6.2,0.6-10.1,1.9-11.8c1.3-1.6,4.3-2.5,9-2.5c4.6,0,7.6,0.8,8.9,2.5S37.5,74,37.5,80
	C37.5,87.1,36.8,91.6,35.6,93.5z"/>
<path class="st0" d="M314.2,105.1h11V57.8h-11C314.2,57.8,314.2,105.1,314.2,105.1z M245.7,83.3c0,8.7-3.6,13-10.8,13
	c-3.5,0-5.8-0.6-6.9-1.9c-1.1-1.3-1.7-3.9-1.7-7.9V57.7H215v31.6c0,10.7,5.3,16,16,16c7.9,0,12.9-2.9,15.1-8.7l0.2,0.1l-0.6,8.1H257
	v-47h-11.3C245.7,57.8,245.7,83.3,245.7,83.3z M303.7,79.3c-2.4-1.7-7.7-2.8-15.7-3.2c-6-0.3-9.5-0.7-10.5-1.2s-1.5-2-1.5-4.6
	c0-3.8,2.9-5.7,8.8-5.7c4.1,0,6.7,0.3,7.7,0.8c1.1,0.6,1.7,2,1.9,4.2c0,0.2,0.1,0.5,0.1,0.9h11c0-5.3-1.4-8.9-4.1-10.8
	c-2.7-1.8-8-2.8-15.8-2.8c-8.3,0-13.9,1-16.8,2.9s-4.4,5.5-4.4,10.9c0,6,1.6,9.9,4.8,11.8c3.2,1.9,9.8,2.9,19.9,2.9
	c4.5,0,6.7,2,6.7,5.9c0,4.1-3.6,6.2-10.7,6.2c-6.9,0-10.1-2.1-9.6-6.2c0-0.4,0.1-0.9,0.3-1.6h-11.7v1.2c0,5.5,1.5,9.2,4.4,11.2
	s8.4,3,16.5,3c8.4,0,14.2-1.1,17.4-3.3c3.2-2.2,4.8-6.2,4.8-11.9C307.3,84.6,306.1,81.1,303.7,79.3L303.7,79.3z M360.2,57.1
	c-7.6,0-12.6,2.8-14.8,8.5h-0.2l0.4-7.9h-11.2v47h11.3V76.8c0-7.2,3.8-10.8,11.4-10.8c5,0,7.7,1.8,8.3,5.3l0.2,3.3v30.1h11.3v-32
	C376.9,62.3,371.3,57.1,360.2,57.1L360.2,57.1z M406.3,57.1c-8.7,0-14.6,1.6-17.7,4.7c-3,3.1-4.5,9.3-4.5,18.4
	c0,10.3,1.4,17,4.3,20.2s9,4.8,18.3,4.8c13.8,0,20.7-4.6,20.7-13.8v-1.8h-11.3c0,3-0.6,4.9-1.9,5.8c-1.2,0.9-3.9,1.4-8.1,1.4
	c-4.3,0-7.1-0.8-8.5-2.3s-2.1-4.6-2.1-9.2c0-0.3,0-1,0.1-2.1h31.8v-3.4c0-9-1.4-15-4.3-18.1C420.3,58.6,414.7,57.1,406.3,57.1z
	 M395.7,76.3c0-4.5,0.6-7.5,1.9-8.8s4-2,8.2-2c4.3,0,7.1,0.6,8.4,1.7s1.9,3.5,1.9,7.3l0.1,1.9L395.7,76.3z M520,79.3
	c-2.4-1.7-7.7-2.8-15.7-3.2c-6-0.3-9.5-0.7-10.5-1.2s-1.5-2-1.5-4.6c0-3.8,2.9-5.7,8.8-5.7c4.1,0,6.7,0.3,7.7,0.8
	c1.1,0.6,1.7,2,1.9,4.2c0,0.2,0.1,0.5,0.1,0.9h11c0-5.3-1.4-8.9-4.1-10.8c-2.7-1.8-8-2.8-15.8-2.8c-8.3,0-13.9,1-16.8,2.9
	s-4.4,5.5-4.4,10.9c0,6,1.6,9.9,4.8,11.8c3.2,1.9,9.8,2.9,19.9,2.9c4.5,0,6.7,2,6.7,5.9c0,4.1-3.6,6.2-10.7,6.2
	c-6.9,0-10.1-2.1-9.6-6.2c0-0.4,0.1-0.9,0.3-1.6h-11.7v1.2c0,5.5,1.5,9.2,4.4,11.2c3,2,8.4,3,16.5,3c8.4,0,14.2-1.1,17.4-3.3
	c3.2-2.2,4.8-6.2,4.8-11.9C523.6,84.6,522.4,81.1,520,79.3z M472.2,79.3c-2.4-1.7-7.7-2.8-15.7-3.2c-6-0.3-9.5-0.7-10.5-1.2
	s-1.5-2-1.5-4.6c0-3.8,2.9-5.7,8.8-5.7c4.1,0,6.7,0.3,7.7,0.8c1.1,0.6,1.7,2,1.9,4.2c0,0.2,0.1,0.5,0.1,0.9h11
	c0-5.3-1.4-8.9-4.1-10.8c-2.7-1.8-8-2.8-15.8-2.8c-8.3,0-13.9,1-16.8,2.9s-4.4,5.5-4.4,10.9c0,6,1.6,9.9,4.8,11.8
	c3.2,1.9,9.8,2.9,19.9,2.9c4.5,0,6.7,2,6.7,5.9c0,4.1-3.6,6.2-10.7,6.2c-6.9,0-10.1-2.1-9.6-6.2c0-0.4,0.1-0.9,0.3-1.6h-11.7v1.2
	c0,5.5,1.5,9.2,4.4,11.2c3,2,8.4,3,16.5,3c8.4,0,14.2-1.1,17.4-3.3c3.2-2.2,4.8-6.2,4.8-11.9C475.8,84.6,474.6,81.1,472.2,79.3
	L472.2,79.3z"/>
</svg>
