<svg width="56" height="22" viewBox="0 0 56 22" fill="none" xmlns="http://www.w3.org/2000/svg">
<path d="M44.0082 9.85284L49.9395 20.6296H55.1802L44.0183 0.386108L32.8057 20.6296L37.955 20.6193L44.0082 9.85284Z" fill="white"/>
<path d="M10.7436 1.87099e-05C4.81987 -0.0109546 1.8635e-05 4.80632 1.8635e-05 10.7648C-0.0109107 16.7123 4.78709 21.5516 10.7217 21.5516C16.6455 21.5625 21.4653 16.7453 21.4653 10.7868C21.4653 4.83924 16.6673 0.010992 10.7436 1.87099e-05ZM10.7217 16.5258C7.56315 16.5258 5.00567 13.9471 5.00567 10.7758C5.0166 7.60451 7.57408 5.03676 10.7327 5.03676C13.8913 5.03676 16.4487 7.61548 16.4487 10.7868C16.4487 13.958 13.8803 16.5258 10.7217 16.5258Z" fill="white"/>
<path d="M27.8495 15.9308L27.8698 0.569092H23.1877L23.2456 15.1252V20.6283H30.8254L33.5066 15.9308H27.8495Z" fill="white"/>
</svg>
